<svg xmlns="http://www.w3.org/2000/svg" viewBox="0 0 811.47 806.86"><defs><style>.cls-1{fill:#415970;}.cls-2{fill:#1a9bb6;}.cls-3{fill:#435a71;}.cls-4{fill:#1e9db8;}.cls-5{fill:#496076;}.cls-6{fill:#4d6479;}.cls-7{fill:#2ca3bc;}.cls-8{fill:#31a5be;}.cls-9{fill:#2ba3bc;}.cls-10{fill:#d8eef2;}.cls-11{fill:#54697e;}.cls-12{fill:#83c9d7;}.cls-13{fill:#92a0ad;}.cls-14{fill:#919fac;}.cls-15{fill:#566d81;}.cls-16{fill:#9eaab6;}.cls-17{fill:#bbc3cb;}.cls-18{fill:#a4b0ba;}.cls-19{fill:#7c8c9c;}.cls-20{fill:#6cbfd0;}.cls-21{fill:#96d1dd;}.cls-22{fill:#35a7bf;}.cls-23{fill:#909eab;}.cls-24{fill:#c7ced5;}.cls-25{fill:#8b9aa8;}.cls-26{fill:#9da9b5;}.cls-27{fill:#6bbed0;}.cls-28{fill:#8f9dab;}.cls-29{fill:#b7c0c9;}.cls-30{fill:#80c7d6;}.cls-31{fill:#8fcedb;}.cls-32{fill:#6e8091;}.cls-33{fill:#99a6b2;}.cls-34{fill:#afb9c3;}.cls-35{fill:#7dc6d5;}.cls-36{fill:#8098a7;}.cls-37{fill:#dce0e4;}.cls-38{fill:#94a2ae;}.cls-39{fill:#6bbfd0;}.cls-40{fill:#86cad9;}.cls-41{fill:#8695a4;}.cls-42{fill:#87cbd9;}.cls-43{fill:#adb7c1;}.cls-44{fill:#fcfcfc;}.cls-45{fill:#f7f8f9;}.cls-46{fill:#eef0f2;}.cls-47{fill:#d2d8dd;}.cls-48{fill:#aab5bf;}.cls-49{fill:#9ca8b4;}.cls-50{fill:#acb7c0;}.cls-51{fill:#f8fbfc;}.cls-52{fill:#eaf6f8;}.cls-53{fill:#ddf0f4;}.cls-54{fill:#e8f4f7;}.cls-55{fill:#d1ebf0;}.cls-56{fill:#9bd3df;}.cls-57{fill:#c0e3ea;}</style></defs><title>Scrum</title><g id="Capa_2" data-name="Capa 2"><g id="Capa_1-2" data-name="Capa 1"><path class="cls-1" d="M599.42,751.32c-16.42,3.12-32.51,7.84-49.13,10-1.42.43-3.15,1.48-2.92-1.44a191,191,0,0,0,49.53-15.74c-23.27,5.14-46.51,10.27-70.43,10.85-4.9-.19-10.21,2.87-14.54-1.86l8.55-.61c-32.73.52-64.56-4.73-95.81-14.08-8.94-.72-16.34-5.48-23.23-8.3,5.9,4,14.58,5.12,21.42,10l15.65,5.2c.16,3-1.54,2.16-3.15,1.54-76.64-18-135-60.87-175.66-127.94l1.34-1.75c5.3,4.67,9.91,11.2,16.09,13.53,6.81,2.57,8.79,11.17,17.05,11-.1-4.92-4.62-8.39-5.6-14.61,9.93,9,18.71,17.28,27.74,25.23,13.77,12.1,27.95,23.72,44.61,31.7,9.1,4.37,18.56,7.65,30,5-5.76-8.08-11.31-15.44-16.34-23.15C372,661.9,366.42,657,370,653c2.74-3.12,7.88,2.35,11.66,4.38a287.49,287.49,0,0,0,71.08,27,175.41,175.41,0,0,0,49.63,3.87c6.13-.36,12.34-3.55,18.91-3.54,1.56.36-1.87,1.92.52,2.1,4.54.36,9.1,0,13.76.34-4-1.4-8.91,2.21-12.16-2.44,14-.32,27.48-4,41.15-6.41.41.33.53.65.37.95s-.3.44-.45.44c-2.31,1.62-5.11,2.79-6.07,7.22,16.6-8,33.56-12.81,50.06-18.89,25.23-9.29,43.17-27.57,61.87-45.15,7.17-6.74,14.08-13.66,22.21-19.26,2.63-1.81,6.67-3.45,1.79-7.46-2.16-1.76.41-3.32,1.33-4.62,27.14-38.4,37.68-81.68,39.43-128.11.76-19.93-3.27-39.29-3.47-59,0-1.58,0-3.4-.7-4.69-16.69-30-27.22-63.27-49.77-90.06-12.53-14.88-26.81-27.88-40.52-41.54-13.36-13.3-29.62-21.4-45.05-31.16-4.56-2.89-9.29-5.13-14.78-5.24a14.48,14.48,0,0,1-8.14-2.84c-11.24-7.94-24.17-10.12-37.41-12a457.39,457.39,0,0,0-80.16-4.41c-5.47.19-11-.83-18.33-1.45,26.53-9.42,57.55-12.12,135-2.29-16.29-7-31.49-9.73-46.7-12.32-21.51-3.66-43.29-3.84-65-4.88a104.1,104.1,0,0,1-13.41-1.56c-2.75-.49-6.38-.94-6.42-4.66,0-3.09,3.13-4,5.61-4.84,9.12-3.08,18.58-4.27,28.14-4.83,24-1.42,47.68,1.05,71.29,5,5.24,1.23,10.88-1.16,14.71,1.09-2.48-1-7-.7-9.88-4.26-7.36-2.8-15.22-4.36-22.8-8.9l7.84-2.81c-10.45-5-21.06-6.14-31.29-8.58.52-1.35,1.51-1.49,2.73-1.07,79.91,7.79,150.21,37.49,208.73,93.08,50.54,48,82.46,106.69,92.11,175.76C823.26,538.54,793,638.73,714.8,723.65c-24,26.12-54.72,41.31-87.15,53.82-35.26,13.59-71.31,23.49-109.07,27.45-93.65,9.81-174.93-17.7-244.41-80.5C226,680.88,193.59,627.06,174,565.27a75.39,75.39,0,0,1-3-29.12c.19-2.33.44-5.25,3.27-5.63,2.31-.31,3.6,2.16,4.41,4q5.21,12,10.05,24.21c6.44,16.28,13.5,32.27,22.19,47.5,5.08,2.26,4.26,8.28,7,11,.93,1.67,1.69.05.91.77-.16.15-.36,0-.6-.47-3.48-6.56-5.34-13.65-6.9-20.84-11.88-32.2-21.14-65-23.19-99.51,1-2.07,1.93-1.14,2.83.1,13,71.27,42.42,134.34,93.91,186,50.22,50.39,110.65,80.34,181.52,88.54,2.89.34,5.82.44,8.73.55a30.56,30.56,0,0,0,7.1-.45C443.5,765.25,404,761.14,370.69,737c3.42,1.58,6.82,3.2,10.26,4.72,58.37,25.65,118.93,33.78,181.89,23a30.5,30.5,0,0,1,3.18-.22c-.94-.5,1.24.89.18.8-.12,0-.28.39-.42.59,21.29-5,42.82-9.24,62.85-18.54,7.09-2.55,13.46-6.61,20.31-9.66-7.14,3.07-13.74,7.32-21.16,9.8a147.58,147.58,0,0,1-23.28,8.64c-1.66-.26-3.41-.41-3.19-2.8a11.2,11.2,0,0,1,1.27-.44c3.94-3.32,9.08-3.68,13.62-5.53,1-.35-.46-1.65.11-.75.18.26.05.49-.38.66A55.11,55.11,0,0,1,599.42,751.32Z"/><path class="cls-2" d="M191,497.32l-2.83-.09c-2-3-5.46-3-8.4-3.93Q86,465.07,30.44,384.39c-12.56-18.31-18.7-39.19-23-60.59C2.05,296.67-1.09,269.25.35,241.49,5.86,135.36,60.37,63.71,155.54,21,180.35,9.84,206.72,3.9,233.64.44a58,58,0,0,1,22.85,1.78c1.71.47,4.09,1,4.32,3.06.3,2.74-2.5,3.32-4.33,3.71-9.05,2-18.22,3.44-27.27,5.44-8.78,1.95-17.47,4.32-26.2,6.51-4.82,5.06-11.92,3.64-17.13,6.17,6.35-1.33,13-3.94,20.17-3.06,24.45-3.52,48.93-6.16,73.67-3.3,5.75.66,11.51,1.3,17.21,3.19-10.05,0-20.11-.33-30.14.06-67,2.61-125.64,25.75-174.13,72.79-10.08,9.78-19.43,20.33-26.9,32.36a22,22,0,0,1-2.82,7.26,210.18,210.18,0,0,0-25.11,52c-.92,2.79-2.5,5.23-3.59,7.9-.4,1,.33,1.44.3.37a2.51,2.51,0,0,1,.44-1.48c-.92-.53,1.4-.95.39-.73a2.14,2.14,0,0,1,2,.29c-5.84,22.07-9.58,44.42-12.54,67.11a126.62,126.62,0,0,0,1.54,41.93q-.87-12.19-1.73-24.39l.69-.1,4.65,30c.29-18.31-1.67-36.57-.13-56.39,2.46,16,1.46,31.07,6.75,45.47-1.82-19.51-2.6-38.95,1.51-57.76,5.23-23.88,14-46.78,24.64-68.87a36.7,36.7,0,0,0,2.69-6.45c-5,4.11-6.31,10.64-10.54,15.06,24.51-59.59,66.48-101,128.11-122L158.36,80l.73,1.13,11.72-3C158.43,87.81,147,96.33,136,105.43c-9.82,8.15-18.94,17.09-24.79,28.74a29.65,29.65,0,0,0-2.36,6.72c-.38,1.71-1.44,3.89.24,5.26s3.52-.35,5.07-1.07c6.48-3,12.72-6.56,19.65-8.55,1.75-.51,3.9-1.75,5.1.09s-.65,3.45-1.84,4.84c-11.47,13.35-20.67,28.19-29.23,43.52s-13.15,32-15.6,48.9c-2.49,17.16-1.73,34.79-1.08,52.39-1.7-.61-.87-1.9-1.13-2.8a26.93,26.93,0,0,0-1-3.75,6.28,6.28,0,0,0-2.93-2.88c2.58,10.19,2.06,20.66,4.28,30.78,1.64,7.51,2.26,15.39,4.93,22.5,5.06,13.47,12.34,25.94,20.25,37.95,4.66,7.09,9.8,13.84,13,21.84.86,2.21,1.72,5.57,5.59,2.76,1.95-1.41,2.56,1,3.46,2,12.65,14,28.53,23.56,44.72,32.69,2.12-.65,3.61.44,5,1.82,9.19,5.54,19.51,8,29.67,10.82a1.33,1.33,0,0,1,2,.26c2.63,1.61,5.58,1.83,8.55,2a3.72,3.72,0,0,1,3-.94c3.88,3.26,8.39,5.61,13.4,5.43a102.13,102.13,0,0,1,19.78,1.55c18.44,2.89,35.25-4.71,52.42-8.9,28.5-6.95,52.93-22,76.25-39.77a161.75,161.75,0,0,0,32.61-33.55c13.55-18.56,22.77-39.56,28.64-62.13,4.27-16.41,4.83-33.62,11.26-49.36,3.13,7.63,1.43,32.58-2.69,49.36-4,16.39-9,32.54-13.21,48.91C460.15,333.77,467,313,472.09,291.6c1.7-7.23,3.13-14.54,5.28-21.64,1.16-3.83,1.63-10.32,6.31-9.82,5,.53,3.53,6.89,3.61,10.8.35,16.9-3.17,33.23-8.29,49.23-3.13,9.81-6.61,19.52-8.84,29.85l12.64-20.54c2.77.4.92,3.58,3.27,3.8,3.86-5.67,6.36-12.08,8.75-18.55,1.35-.49,2-.27,1.37,1.32C464.58,413,402.24,477.42,301,500.58c-2.32.53-4.73.69-7.09,1-.61.26-1.21.54-1.8.85A281.25,281.25,0,0,1,193.3,497,6.72,6.72,0,0,0,191,497.32Z"/><path class="cls-3" d="M199.27,374.68c11.58-45.3,33.86-84.86,63.94-120.33,16.13-19,35.85-33.49,57.41-46.22a37.1,37.1,0,0,1-2.5,2.93c-1.14,1.11-2.47,2-3.62,3.1-32.75,31.05-64,63.37-86.62,103a332.13,332.13,0,0,0-27,59.16C199.37,376.7,198.81,376.2,199.27,374.68Z"/><path class="cls-4" d="M506.55,156l-2.72,1.07-21.21-1.85c-1.38,3.47,2.52,6,1.84,10.24l-7.37-10.67a1.17,1.17,0,0,1-.6-2c-25-38.73-53.76-73.91-93.51-98.63-.38-1.45-.07-2.23,1.61-1.61,40,22.45,72.83,52,92.46,94.29,3.36,7.24,8.68,7.3,14.56,7.83C496.59,155.16,501.69,154.16,506.55,156Z"/><path class="cls-5" d="M230.43,441.31c-.58,1.63-1.58,1.95-3,.94,3.21-37.32,14.88-72.9,32.48-96.81C244.7,375.77,235.38,407.88,230.43,441.31Z"/><path class="cls-6" d="M231.8,587C219.73,560.67,211,533.48,211,504c6.4,27.44,11.6,55.21,22.32,81.42C234,587.13,233.19,587.36,231.8,587Z"/><path class="cls-7" d="M316.35,58.66C343,64,365.48,77.34,385.52,95.36c-22-15-45.34-27.39-71-34.85C314.14,58.92,314.66,58.21,316.35,58.66Z"/><path class="cls-8" d="M37.41,194.73l-.69,0-.69,0c0-9.16,4.54-17,8.08-24.89C50.32,156,55.86,141.59,67.32,130.8l7.92-8.51C59.24,144.8,47.71,169.44,37.41,194.73Z"/><path class="cls-9" d="M214.15,40.1c20-4.08,40-6.78,60.35-2.39-19.64.56-39.27,1.1-58.72,4.07C214.15,42.27,213.74,41.59,214.15,40.1Z"/><path class="cls-10" d="M67.32,130.8c-14.49,19.32-24,41.08-31.29,63.95-.89,2.16-1.77,4.33-2.66,6.49,5.63-26.37,16.08-50.56,32.39-72.09Z"/><path class="cls-7" d="M354.22,38.33c-13.67-5.48-27.3-11.07-41.41-15.37,15.83-1.69,28.74,5.66,41.39,13.81.47.34.63.69.48,1S354.38,38.33,354.22,38.33Z"/><path class="cls-11" d="M388.48,651.92C377.06,646,362.1,645.06,358,628.13,368.22,636.59,378.09,644.62,388.48,651.92Z"/><path class="cls-12" d="M496.19,316.05l-1.37-1.32A290.17,290.17,0,0,0,506,265.08c1.39-.2,2.12.12,1.32,1.67A181.46,181.46,0,0,1,496.19,316.05Z"/><path class="cls-13" d="M511.93,753.1c4.5,3.38,9.79.48,14.54,1.86-10.09,2.71-20.35,1.07-30.52.95a68,68,0,0,1-17.79-2.81Z"/><path class="cls-14" d="M476.49,152.83l.6,2H423C437.25,153.07,456.87,153,476.49,152.83Z"/><path class="cls-15" d="M187.26,429.2l-5-1.82q4.06-11.73,8.12-23.47c1.49-.38,2.19,0,1.72,1.67Q189.69,417.4,187.26,429.2Z"/><path class="cls-16" d="M218.89,440.28l-2-.26c.87-14.84,4.37-29.15,9.23-43.19C224.14,411.38,219.75,425.55,218.89,440.28Z"/><path class="cls-17" d="M211.36,596.73q5.35,13.32,10.69,26.64a48,48,0,0,1-11.14-17.1c2.52-2-.14-3.68-.58-5.34C209.84,599.11,208.74,597.6,211.36,596.73Z"/><path class="cls-18" d="M547.37,759.85l2.92,1.44c-8.89,2.94-24,3.86-36.55,1.93C525.1,763.51,536.13,760.71,547.37,759.85Z"/><path class="cls-19" d="M604.41,754.76c-9.79,3.08-19.18,8-30,6.53l26.86-8C601.93,754.69,603.29,754.47,604.41,754.76Z"/><path class="cls-20" d="M354.22,38.33a5.82,5.82,0,0,0,0-1.56c9.85,5.82,21,9.15,30.39,15.82-.54.53-1.08,1.07-1.61,1.61Z"/><path class="cls-21" d="M206.05,24.05c-7.12,3.74-15.4,1.3-22.73,4.3A58.17,58.17,0,0,1,203,20.94Z"/><path class="cls-22" d="M140.72,145.22c4.16-7.23,9.17-13.32,18.53-13.69l-17,15.24C140.84,147.16,140.07,146.9,140.72,145.22Z"/><path class="cls-23" d="M231.8,587c.5-.51,1-1,1.48-1.54q6.25,13,12.5,26A89.48,89.48,0,0,1,231.8,587Z"/><path class="cls-24" d="M422.86,740.13a65.5,65.5,0,0,1-22.72-11.28l24.53,9.56Z"/><path class="cls-25" d="M435.36,746.87l3.15-1.54,22.84,5.25A62.21,62.21,0,0,1,435.36,746.87Z"/><path class="cls-26" d="M455.08,678.85a45,45,0,0,1-25-7.18Z"/><path class="cls-27" d="M316.35,58.66l-1.86,1.85-22.86-5.29A56.72,56.72,0,0,1,316.35,58.66Z"/><path class="cls-28" d="M303.2,394.08c-1.85,7.18-3.7,14.36-5.72,22.22C295.38,410.62,296.72,405,303.2,394.08Z"/><path class="cls-29" d="M550.07,177.36a31.27,31.27,0,0,1,13.2,5.63c-6-.91-12.3.42-18-2.46C547.06,179.8,550.21,181.1,550.07,177.36Z"/><path class="cls-30" d="M214.15,40.1l1.63,1.68-20.87,5.08A47.4,47.4,0,0,1,214.15,40.1Z"/><path class="cls-31" d="M507.34,266.75,506,265.07l3.15-20.77C510.79,252,509.28,259.4,507.34,266.75Z"/><path class="cls-32" d="M313.27,569.93c1.93.79,2.52,2.59,3.16,4.24,1.08,2.79,4.14,4.78,3.44,8.23-.11.53-1.48,1.38-1.76,1.21-3.25-1.92-3.17-5.7-4.56-8.67C312.82,573.4,311.87,571.7,313.27,569.93Z"/><path class="cls-33" d="M564.44,679.62a4.33,4.33,0,0,0,.08-1.39c6-3.42,12.83-4.12,19.35-6C578,676.34,571.17,677.82,564.44,679.62Z"/><path class="cls-34" d="M599.42,751.32a47.28,47.28,0,0,1,17.82-4.13c-4.67,2.53-9.39,4.82-14.66,5.7Z"/><path class="cls-35" d="M329.59,116.81c6.38,0,11.31,3,15.38,7.63Z"/><path class="cls-36" d="M292.15,502.45l1.8-.85c-.69,4.77,2.55,9.19,1.21,14.23C288.71,512.51,292.36,507,292.15,502.45Z"/><path class="cls-37" d="M523.37,684.64c4.41,2.57,9.7-.14,15.3,2.92H518.19c-.13-2.48,2.8-1.19,3.06-2.92Z"/><path class="cls-38" d="M192.1,405.58l-1.72-1.67c1.86-5.44,3-11.17,6.17-16.1l-.1-.1C196.42,394,194.21,399.79,192.1,405.58Z"/><path class="cls-39" d="M211.91,105.45c-1,1-1.16,1.35-1.35,1.38-3.68.54-6.81,3.77-10.87,2.3-.29-.11-.47-1.74-.28-1.83A19.41,19.41,0,0,1,211.91,105.45Z"/><path class="cls-40" d="M140.72,145.22l1.54,1.55L134,155.93l-1.32-1.05Z"/><path class="cls-41" d="M199.27,374.68l1.59,1.6c-1.15,3.94-1.59,8.15-4.41,11.43l.1.1C195.83,383.09,197.16,378.81,199.27,374.68Z"/><path class="cls-42" d="M356.14,67.16l-10.68-5.4C350.11,61.09,353.38,63.58,356.14,67.16Z"/><path class="cls-43" d="M237.59,369.27c-.43-4.48,1.38-8.06,5.27-10.71Z"/><path class="cls-44" d="M414.62,782.06c-50.46-12.62-94.51-37-132.39-72.61a229.08,229.08,0,0,1-32.79-37.75l1.61-1.77c.8,1.38,1.35,3,2.45,4.11,33.78,33.16,69.32,64,111.92,85.64a328.9,328.9,0,0,0,50.6,21C416.47,782,416.23,782.72,414.62,782.06Z"/><path class="cls-45" d="M793,447.09c17.61,34.52-26.09,167.06-50,178.53C778.06,570.74,795.47,511.69,793,447.09Z"/><path class="cls-46" d="M512.75,798.06c-17.26,4.18-34,2.51-50.94-5C478.77,794.93,495.76,796.54,512.75,798.06Z"/><path class="cls-47" d="M725.15,651.35c-9,10-17.82,20.27-29.89,26.84h0c-28.5,24.77-60.12,44.33-95.58,57.5-.39,1.42-.11,2.19,1.56,1.56a265.52,265.52,0,0,0,95.62-54.2h0C708.18,674.19,718,664,725.15,651.35Z"/><path class="cls-48" d="M599.68,735.69l1.56,1.56c-7.18,3.78-15,5.11-23.13,5.11Z"/><path class="cls-49" d="M629.6,748.05l-1.46-1.48,22.37-10.69C644.28,741.32,637.13,745,629.6,748.05Z"/><path class="cls-50" d="M414.62,782.06c.47-.47.94-.94,1.4-1.42l16.45,4.74C426.25,785.55,420.2,785,414.62,782.06Z"/><path class="cls-51" d="M135.1,46.78C97.62,75,62,105.05,37.72,146.3,59.5,102.6,91.3,68.78,135.1,46.78Z"/><path class="cls-52" d="M73.61,391.34a196.55,196.55,0,0,1-32-83.16c-.53-1.58.11-2,1.56-1.55a230.06,230.06,0,0,0,22.27,63.59c3.45,6.64,8.13,12.75,8.83,20.57C74.07,391,73.84,391.16,73.61,391.34Z"/><path class="cls-53" d="M103.27,425.18A267.56,267.56,0,0,0,187.13,479C170.32,479.25,114.6,443.36,103.27,425.18Z"/><path class="cls-54" d="M231.83,490.94c-15.05-.63-29.86-2.2-43-10.49C203.15,484,217.61,487,231.83,490.94Z"/><path class="cls-55" d="M7.5,224.59c-1.69-14.81,4.12-27.53,11.66-39.76C15.21,198,10.73,211.07,7.5,224.59Z"/><path class="cls-56" d="M43.19,306.63l-1.56,1.55a72.08,72.08,0,0,1-2-28.73C39.71,288.68,42.27,297.54,43.19,306.63Z"/><path class="cls-57" d="M74.29,390.79l11,13.27a23.79,23.79,0,0,1-11.66-12.72A.61.61,0,0,1,74.29,390.79Z"/></g></g></svg>