<svg id="Capa_1" data-name="Capa 1" xmlns="http://www.w3.org/2000/svg" viewBox="0 0 630 630"><defs><style>.cls-1{fill:#f7df1e;}</style></defs><title>ECMAScript6</title><rect class="cls-1" width="630" height="630"/><path d="M114.2,577.62V399.23H248.76v34.91H153.19v36.19h84.1v34.92h-84.1v37.46H250v34.91Z"/><path d="M348.4,580.17a113.53,113.53,0,0,1-75.69-28.54l23.19-27.78c16.06,13.25,32.87,21.66,53.26,21.66,16.06,0,25.74-6.37,25.74-16.82v-.51c0-9.94-6.11-15-35.93-22.68C303,496.33,279.84,486.39,279.84,451v-.51c0-32.36,26-53.77,62.44-53.77,26,0,48.17,8.16,66.26,22.68l-20.39,29.57c-15.8-11-31.34-17.59-46.38-17.59s-22.93,6.88-22.93,15.55v.51c0,11.72,7.64,15.54,38.48,23.44,36.19,9.43,56.57,22.43,56.57,53.52v.51C413.89,560.29,386.88,580.17,348.4,580.17Z"/><path d="M553.8,446.12c-11.72-8.92-21.15-14.27-36.44-14.27-22.17,0-33.39,17.84-35.93,41.29,8.92-5.87,19.36-11.47,36.95-11.47,35.42,0,62.69,19.62,62.69,57.08,0,36.7-29.31,61.93-68,61.93-23.19,0-39-6.63-51.48-19.11-13-13-21.15-32.11-21.15-67.79,0-55.3,25-97.61,78.23-97.61,24.21,0,40,7.14,55.81,19.63ZM511,494.29c-19.37,0-30.58,10.7-30.58,26,0,15.55,11.72,26.76,31.09,26.76s30.58-11,30.58-26.5C542.08,505.25,530.36,494.29,511,494.29Z"/></svg>