<?xml version="1.0" encoding="utf-8"?>
<!-- Generator: Adobe Illustrator 24.0.2, SVG Export Plug-In . SVG Version: 6.00 Build 0)  -->
<svg version="1.1" id="Layer_1" xmlns="http://www.w3.org/2000/svg" xmlns:xlink="http://www.w3.org/1999/xlink" x="0px" y="0px"
	 viewBox="0 0 430.8 300" style="enable-background:new 0 0 430.8 300;" xml:space="preserve">
<style type="text/css">
	.st0{fill:#10AA50;}
	.st1{fill:#B8C4C2;}
	.st2{fill:#12924F;}
	.st3{fill:#21313C;}
</style>
<title>MongoDB_Logo_FullColorBlack_RGB</title>
<path class="st0" d="M134.4,120.3c-15.3-67.5-47.2-85.5-55.4-98.2c-3.4-5.6-6.3-11.4-8.9-17.4c-0.4,6-1.2,9.8-6.3,14.3
	C53.6,28.1,10.1,63.6,6.5,140.3c-3.4,71.6,52.6,115.7,60,120.2c5.7,2.8,12.6,0.1,16-2.5C109.5,239.5,146.4,190.1,134.4,120.3"/>
<path class="st1" d="M72.5,222.5c-1.4,17.7-2.4,28-6,38.1c0,0,2.3,16.9,4,34.7h5.8c1.4-12.6,3.5-25.1,6.4-37.4
	C75.2,254.2,72.8,238,72.5,222.5z"/>
<path class="st2" d="M82.7,257.9L82.7,257.9c-7.6-3.5-9.8-20.1-10.2-35.5c1.9-25.4,2.4-50.9,1.7-76.4c-0.4-13.4,0.2-123.7-3.3-139.9
	c2.4,5.5,5.1,10.8,8.2,15.9c8.1,12.7,40.1,30.7,55.4,98.2C146.4,190,109.7,239.3,82.7,257.9z"/>
<path class="st3" d="M205.6,251.1c4.5,3.6,13.5,5.1,21.4,5.1c10.3,0,20.3-1.9,30.1-10.8c10-9.1,16.9-23,16.9-45.2
	c0-21.3-8.1-38.7-24.8-48.8c-9.4-5.9-21.6-8.2-35.5-8.2c-4,0-8.1,0.2-10.5,1.3c-1,0.8-1.6,1.8-1.9,3c-0.4,3.8-0.4,32.7-0.4,49.8
	c0,17.5,0,42,0.4,45C201.5,244.9,202.8,249.3,205.6,251.1 M162.9,133.7c3.6,0,17.4,0.6,23.8,0.6c12,0,20.3-0.6,42.7-0.6
	c18.8,0,34.6,5.1,45.9,14.8c13.7,11.8,21,28.3,21,48.4c0,28.5-13,45-26.1,54.3c-13,9.7-29.9,15.2-54,15.2c-12.8,0-34.8-0.4-53.2-0.6
	h-0.4c-0.9-1.7,1.6-8.3,3.1-8.5c5-0.6,6.3-0.8,8.6-1.7c3.9-1.6,4.8-3.6,5.2-10.5c0.6-13.1,0.4-28.7,0.4-46.5
	c0-12.7,0.2-37.4-0.2-45.2c-0.7-6.5-3.4-8.2-9-9.5c-4-0.8-8-1.5-12-1.9C158.5,140.7,161.8,134.9,162.9,133.7"/>
<path class="st3" d="M349.4,144.4c-0.8,0.2-1.9,2.3-1.9,3.4c-0.2,7.6-0.4,27.5-0.4,41.2c0.1,0.5,0.5,1,1.1,1.1
	c2.8,0.2,9.6,0.4,15.4,0.4c8.1,0,12.8-1.1,15.4-2.3c6.8-3.4,10-10.8,10-18.8C388.9,151,376,144,357,144
	C354.5,144,351.9,144.1,349.4,144.4 M397.8,228.9c0-18.6-13.7-29.1-38.7-29.1c-1.1,0-9-0.2-10.9,0.2c-0.6,0.2-1.3,0.6-1.3,1.1
	c0,13.3-0.2,34.6,0.4,43.1c0.4,3.6,3,8.7,6.2,10.1c3.4,1.9,11.1,2.3,16.5,2.3C384.8,256.6,397.8,248.4,397.8,228.9 M310.8,134.1
	c1.9,0,7.6,0.6,22.1,0.6c13.7,0,24.8-0.4,38-0.4c16.4,0,39.1,5.9,39.1,30.4c0,12-8.5,21.8-19.7,26.4c-0.6,0.2-0.6,0.6,0,0.8
	c15.8,4,29.7,13.7,29.7,32.3c0,18.2-11.3,29.6-27.8,36.8c-10,4.4-22.4,5.9-35,5.9c-9.6,0-35.4-1-49.7-0.8c-1.5-0.6,1.4-7.4,2.7-8.5
	c3.3-0.1,6.5-0.6,9.7-1.5c5.1-1.3,5.7-2.9,6.4-10.5c0.4-6.6,0.4-30,0.4-46.7c0-22.8,0.2-38.2,0-45.8c-0.2-5.9-2.3-7.8-6.4-8.9
	c-3.2-0.6-8.5-1.3-12.8-1.9C306.4,141.2,309.7,134.9,310.8,134.1"/>
<g>
	<path class="st3" d="M159.8,98.8c-0.2-0.6-0.3-1.2-0.3-1.9c0-0.4,0.1-0.9,0.3-1.3c1.2-0.2,2.4-0.4,3.6-0.7c1.7-0.4,2.3-1.3,2.4-3.4
		c0.3-5,0.3-14.4,0.2-21.1v-0.2c0-0.7,0-1.7-0.9-2.4c-1.5-1-3.2-1.7-5-2.2c-0.8-0.2-1.2-0.6-1.2-1.1c0-0.5,0.5-1.1,1.5-1.3
		c2.7-0.3,9.9-2,12.7-3.3c0.3,0.4,0.4,0.9,0.4,1.3c0,0.3,0,0.6-0.1,0.9c-0.1,0.9-0.2,2-0.2,3.1c0.1,0.4,0.4,0.6,0.8,0.6
		c0.2,0,0.3-0.1,0.4-0.2c5.3-4.2,10.1-5.7,12.6-5.7c4,0,7.2,1.9,9.6,5.9c0.1,0.2,0.3,0.3,0.5,0.3c0.2,0,0.4-0.1,0.5-0.3
		c4.9-3.7,9.8-6,13.1-6c7.7,0,12.3,5.8,12.3,15.4c0,2.8,0,6.3-0.1,9.6c0,2.9,0,5.6,0,7.5c0,0.4,0.6,1.7,1.5,2
		c1.1,0.6,2.8,0.8,4.8,1.2h0.1c0.2,0.6-0.2,2.7-0.5,3.2c-0.5,0-1.2,0-2.1-0.1c-1.6-0.1-3.8-0.2-6.3-0.2c-5.1,0-7.8,0.1-10.4,0.3
		c-0.2-0.6-0.3-2.7,0-3.1c1.1-0.2,2.1-0.4,3.1-0.7c1.6-0.5,2.1-1.3,2.2-3.4c0-1.5,0.3-15.1-0.2-18.3c-0.5-3.3-3-7.2-8.5-7.2
		c-2,0-5.3,0.9-8.5,3.2c-0.2,0.2-0.3,0.5-0.3,0.8V70c0.4,1.7,0.4,3.8,0.4,6.8c0,1.8,0,3.6,0,5.4c0,3.7,0,7.3,0,9.9
		c0,1.8,1.1,2.3,2,2.6c0.5,0.1,0.9,0.2,1.2,0.3c0.7,0.2,1.5,0.4,2.6,0.5c0.2,0.8,0.2,1.6,0,2.3c0,0.3-0.2,0.6-0.3,0.8
		c-2.8-0.1-5.8-0.2-10-0.2c-1.3,0-3.4,0.1-5.2,0.1c-1.5,0-2.9,0.1-3.7,0.1c-0.2-0.5-0.3-1.1-0.3-1.6c0-0.5,0.1-1,0.3-1.5l1.1-0.2
		c1-0.2,1.8-0.3,2.6-0.5c1.4-0.4,1.9-1.2,2-3c0.3-4.1,0.5-16.1-0.1-19.1c-1-4.8-3.7-7.2-8.1-7.2c-2.6,0-5.8,1.2-8.5,3.2
		c-0.5,0.5-0.8,1.2-0.8,1.9c0,1.4,0,3.1,0,4.9c0,6,0,13.5,0.1,16.7c0.1,1,0.4,2.2,2.3,2.6c0.4,0.1,1.1,0.2,1.9,0.4
		c0.5,0.1,1,0.2,1.5,0.3c0.2,1.1,0.1,2.1-0.3,3.2c-0.8,0-1.8-0.1-3-0.1c-1.8-0.1-4-0.2-6.5-0.2c-2.9,0-5,0.1-6.6,0.2
		C161.7,98.8,160.7,98.8,159.8,98.8"/>
	<path class="st3" d="M254.3,64c-1.6,0-3.2,0.4-4.5,1.3c-3.3,2-4.9,6-4.9,11.8c0,10.9,5.5,18.6,13.3,18.6c2.1,0.1,4.2-0.7,5.7-2
		c2.4-2,3.7-6,3.7-11.6C267.6,71.2,262.3,64,254.3,64 M255.8,99.7c-14.2,0-19.2-10.4-19.2-20.1c0-6.8,2.8-12.1,8.2-15.8
		c3.8-2.4,8.2-3.7,12.7-3.8c10.8,0,18.3,7.8,18.3,18.9c0,7.6-3,13.5-8.7,17.3C264.5,97.8,259.7,99.7,255.8,99.7"/>
	<path class="st3" d="M398.4,64c-1.6,0-3.2,0.4-4.5,1.3c-3.3,2-4.9,6-4.9,11.8c0,10.9,5.5,18.6,13.3,18.6c2.1,0.1,4.2-0.7,5.8-2
		c2.4-2,3.7-6,3.7-11.6C411.7,71.2,406.4,64,398.4,64 M399.9,99.7c-14.2,0-19.2-10.4-19.2-20.1c0-6.8,2.8-12.1,8.2-15.8
		c3.8-2.4,8.2-3.7,12.7-3.8c10.8,0,18.3,7.8,18.3,18.9c0,7.6-3,13.5-8.7,17.3C408.6,97.8,403.8,99.7,399.9,99.7"/>
	<path class="st3" d="M350.8,63.6c-4.4,0-7.2,3.4-7.2,8.8s2.4,11.7,9.3,11.7c1.2,0,3.3-0.5,4.4-1.7c1.6-1.5,2.6-4.5,2.6-7.7
		C359.8,67.8,356.4,63.6,350.8,63.6 M350.2,100.4c-1.2,0-2.4,0.3-3.5,0.9c-3.5,2.2-5.1,4.4-5.1,7c0,2.4,0.9,4.3,2.9,6
		c2.4,2.1,5.7,3.1,10,3.1c8.5,0,12.3-4.6,12.3-9.1c0-3.1-1.6-5.2-4.8-6.4C359.5,100.9,355.3,100.4,350.2,100.4 M350.8,122
		c-5.1,0-8.7-1.1-11.9-3.5c-3-2.3-4.4-5.8-4.4-8.2c0-1.6,0.6-3,1.7-4.2c0.9-1,2.9-2.9,7.7-6.1c0.2-0.1,0.2-0.2,0.2-0.4
		c0-0.2-0.1-0.3-0.3-0.4c-3.9-1.5-5.1-4-5.4-5.3c0,0,0-0.1,0-0.2c-0.1-0.5-0.2-1,0.5-1.5c0.5-0.4,1.4-0.9,2.4-1.5
		c1.3-0.7,2.6-1.6,3.8-2.5c0.2-0.3,0.2-0.6,0-0.9c0,0-0.1-0.1-0.1-0.1c-5.8-1.9-8.7-6.2-8.7-12.8c0-4.1,2-8.1,5.3-10.5
		c2.3-1.8,8.2-4,11.9-4h0.2c3.9,0.1,6.1,0.9,9.1,2c1.7,0.6,3.6,0.9,5.4,0.9c3.2,0,4.6-1,5.8-2.2c0.2,0.5,0.3,1.1,0.3,1.7
		c0.1,1.4-0.3,2.7-1,3.8c-0.7,0.9-2.2,1.6-3.6,1.6c-0.1,0-0.3,0-0.4,0c-0.7-0.1-1.5-0.2-2.2-0.4l-0.4,0.1c-0.1,0.2,0,0.4,0.1,0.6
		c0,0,0,0.1,0.1,0.1c0.3,1.2,0.4,2.4,0.5,3.6c0,6.9-2.7,9.8-5.6,12.1c-2.8,2.1-6.2,3.4-9.7,3.8l0,0c-0.1,0-0.4,0-1.1,0.1
		c-0.4,0-1,0.1-1.1,0.1h-0.1c-0.6,0.2-2.3,1-2.3,2.4c0,1.2,0.7,2.7,4.3,3l2.3,0.2c4.7,0.3,10.6,0.7,13.4,1.7
		c3.8,1.3,6.3,4.9,6.2,8.9c0,6.2-4.4,11.9-11.7,15.5C358.4,121.1,354.6,122,350.8,122"/>
	<path class="st3" d="M329.1,95.5c-2.1-0.3-3.6-0.6-5.4-1.4c-0.4-0.4-0.6-0.8-0.7-1.3c-0.2-2.9-0.2-11.3-0.2-16.8
		c0-4.5-0.7-8.4-2.6-11.2c-2.3-3.2-5.5-5-9.6-5c-3.7,0-8.6,2.5-12.6,6c-0.1,0.1-0.7,0.7-0.7-0.2c0-0.9,0.2-2.8,0.2-4
		c0.1-0.6-0.1-1.3-0.6-1.7c-2.6,1.3-10.1,3.1-12.8,3.4c-2,0.4-2.5,2.3-0.4,3h0c1.7,0.5,3.3,1.2,4.9,2.1c0.8,0.7,0.8,1.6,0.8,2.3
		c0.1,6.2,0.1,15.8-0.2,21.1c-0.1,2.1-0.7,2.8-2.2,3.2l0.1,0c-1.1,0.3-2.3,0.5-3.5,0.7c-0.5,0.5-0.5,3.2,0,3.7
		c0.9,0,5.7-0.3,9.7-0.3c5.5,0,8.3,0.3,9.7,0.3c0.6-0.7,0.8-3.2,0.4-3.7c-1.3-0.1-2.6-0.2-3.9-0.6c-1.5-0.4-1.9-1.1-2-2.8
		c-0.2-4.4-0.2-13.7-0.2-20c0-1.8,0.5-2.6,1-3.1c1.9-1.7,5-2.8,7.7-2.8c2.6,0,4.4,0.8,5.7,2c1.5,1.3,2.5,3.2,2.7,5.3
		c0.4,3.5,0.3,10.6,0.3,16.8c0,3.4-0.3,4.2-1.5,4.6c-0.6,0.3-2.1,0.6-3.9,0.7c-0.6,0.6-0.4,3.2,0,3.7c2.4,0,5.3-0.3,9.4-0.3
		c5.2,0,8.5,0.3,9.8,0.3C329.3,98.6,329.5,96.2,329.1,95.5"/>
</g>
</svg>
