<svg xmlns="http://www.w3.org/2000/svg" xmlns:xlink="http://www.w3.org/1999/xlink" viewBox="0 0 800 795.83"><defs><style>.cls-1{fill:url(#Degradado_sin_nombre);}.cls-2{fill:url(#Degradado_sin_nombre_2);}</style><linearGradient id="Degradado_sin_nombre" x1="-545.08" y1="1345.11" x2="-513.43" y2="1313.36" gradientTransform="matrix(12.5, 0, 0, -12.5, 6888.5, 16885.32)" gradientUnits="userSpaceOnUse"><stop offset="0" stop-color="#387eb8"/><stop offset="1" stop-color="#366994"/></linearGradient><linearGradient id="Degradado_sin_nombre_2" x1="-525.62" y1="1324.9" x2="-491.63" y2="1292.34" gradientTransform="matrix(12.5, 0, 0, -12.5, 6888.5, 16885.32)" gradientUnits="userSpaceOnUse"><stop offset="0" stop-color="#ffe052"/><stop offset="1" stop-color="#ffc331"/></linearGradient></defs><title>Python</title><g id="Capa_2" data-name="Capa 2"><g id="Capa_1-2" data-name="Capa 1"><path class="cls-1" d="M397.13,0C194,0,206.7,88.08,206.7,88.08l.25,91.25h193.8V206.7H129.93S0,192,0,396.9,113.43,594.55,113.43,594.55h67.7v-95.1S177.48,386,292.75,386H485s108,1.75,108-104.37V106.17S609.35,0,397.13,0ZM290.25,61.35a34.88,34.88,0,1,1-34.87,35,.17.17,0,0,1,0-.1A34.86,34.86,0,0,1,290.25,61.35Z"/><path class="cls-2" d="M402.88,795.83c203.1,0,190.42-88.08,190.42-88.08l-.25-91.25H399.25V589.12h270.8S800,603.87,800,399,686.58,201.3,686.58,201.3h-67.7v95.07S622.53,409.8,507.25,409.8H315.05s-108-1.75-108,104.37V689.65S190.65,795.83,402.88,795.83Zm106.87-61.35a34.83,34.83,0,0,1-34.87-34.78.17.17,0,0,1,0-.1,34.88,34.88,0,1,1,34.87,34.88Z"/></g></g></svg>